# xmcd
#
# Track frame offsets:
#	150
#	13435
#	23966
#	40788
#	55762
#	68553
#	80040
#	93510
#	108754
#	122637
#	138417
#	158500
#
# Disc length: 2292 seconds
#
# Revision: 0
# Processed by: cddbd v1.5.2PL0 Copyright (c) Steve Scherf et al.
# Submitted via: EasyCDDAExtractor 11.0.2.1
#
DISCID=9508f20c
DTITLE=janie fricke - the very best of
DYEAR=1900
DGENRE=
TTITLE0=i need someone to hold me
TTITLE1=do me with love
TTITLE2=it aint easy being easy
TTITLE3=you dont know love
TTITLE4=hes a heartache (looking for a place to happen)
TTITLE5=if the fall dont get you
TTITLE6=your hearts not in it
TTITLE7=the first word in memory is me
TTITLE8=somebody elses fire
TTITLE9=always have always will
TTITLE10=tears in heaven
TTITLE11=peple get ready
EXTD=
EXTT0=
EXTT1=
EXTT2=
EXTT3=
EXTT4=
EXTT5=
EXTT6=
EXTT7=
EXTT8=
EXTT9=
EXTT10=
EXTT11=
PLAYORDER=
